<svg xmlns="http://www.w3.org/2000/svg" viewBox="0 0 512 512">
  <!-- Font Awesome Free 6.4.0 by @fontawesome - https://fontawesome.com License - https://fontawesome.com/license (Commercial License) Copyright 2023 Fonticons, Inc. -->
  <path fill="#FF6B35" d="M416 144c0-26.5-21.5-48-48-48h-16V64c0-17.7-14.3-32-32-32h-64c-17.7 0-32 14.3-32 32v32h-16c-26.5 0-48 21.5-48 48s21.5 48 48 48h16v160h-16c-26.5 0-48 21.5-48 48s21.5 48 48 48h16v32c0 17.7 14.3 32 32 32h64c17.7 0 32-14.3 32-32v-32h16c26.5 0 48-21.5 48-48s-21.5-48-48-48h-16V192h16c26.5 0 48-21.5 48-48zM96 176c-17.7 0-32-14.3-32-32s14.3-32 32-32h16v64H96zm0 256c-17.7 0-32-14.3-32-32s14.3-32 32-32h16v64H96zm320-160c17.7 0 32 14.3 32 32s-14.3 32-32 32h-16v-64h16z"/>
</svg>
